<svg xmlns="http://www.w3.org/2000/svg" xmlns:xlink="http://www.w3.org/1999/xlink" viewBox="0 0 400 400"><defs><style>.cls-1{fill:url(#linear-gradient);}.cls-2,.cls-3,.cls-4,.cls-5,.cls-6,.cls-7,.cls-8,.cls-9{stroke:#231f20;stroke-miterlimit:10;}.cls-2{fill:url(#linear-gradient-2);}.cls-3{fill:url(#linear-gradient-3);}.cls-4{fill:url(#linear-gradient-4);}.cls-5{fill:url(#linear-gradient-5);}.cls-6{fill:url(#linear-gradient-6);}.cls-7{fill:url(#linear-gradient-7);}.cls-8{fill:url(#linear-gradient-8);}.cls-9{fill:url(#linear-gradient-9);}</style><linearGradient id="linear-gradient" y1="200" x2="400" y2="200" gradientUnits="userSpaceOnUse"><stop offset="0" stop-color="#fff"/><stop offset="0.12" stop-color="#feedf1"/><stop offset="0.37" stop-color="#fabfcb"/><stop offset="0.72" stop-color="#f3768f"/><stop offset="1" stop-color="#ee365b"/></linearGradient><linearGradient id="linear-gradient-2" x1="109.69" y1="99.88" x2="251.56" y2="99.88" xlink:href="#linear-gradient"/><linearGradient id="linear-gradient-3" x1="167.19" y1="139.25" x2="309.06" y2="139.25" xlink:href="#linear-gradient"/><linearGradient id="linear-gradient-4" x1="54.69" y1="162.5" x2="196.56" y2="162.5" xlink:href="#linear-gradient"/><linearGradient id="linear-gradient-5" x1="189.69" y1="195.5" x2="331.56" y2="195.5" xlink:href="#linear-gradient"/><linearGradient id="linear-gradient-6" x1="210" y1="251.75" x2="351.88" y2="251.75" xlink:href="#linear-gradient"/><linearGradient id="linear-gradient-7" x1="75.31" y1="212.38" x2="217.19" y2="212.38" xlink:href="#linear-gradient"/><linearGradient id="linear-gradient-8" x1="42.81" y1="259.88" x2="184.69" y2="259.88" xlink:href="#linear-gradient"/><linearGradient id="linear-gradient-9" x1="139.06" y1="295.5" x2="280.94" y2="295.5" xlink:href="#linear-gradient"/></defs><g id="Background"><rect class="cls-1" width="400" height="400"/></g><g id="Images"><rect class="cls-2" x="109.69" y="43.63" width="141.87" height="112.5"/><rect class="cls-3" x="167.19" y="83" width="141.88" height="112.5"/><rect class="cls-4" x="54.69" y="106.25" width="141.88" height="112.5"/><rect class="cls-5" x="189.69" y="139.25" width="141.88" height="112.5"/><rect class="cls-6" x="210" y="195.5" width="141.88" height="112.5"/><rect class="cls-7" x="75.31" y="156.13" width="141.88" height="112.5"/><rect class="cls-8" x="42.81" y="203.63" width="141.88" height="112.5"/><rect class="cls-9" x="139.06" y="239.25" width="141.88" height="112.5"/></g></svg>